<svg width="22" height="22" viewBox="0 0 22 22" fill="none" xmlns="http://www.w3.org/2000/svg">
<path d="M11 20.625C8.42873 20.625 6.01217 19.624 4.19442 17.8056C1.22305 14.8349 0.516984 10.3297 2.43855 6.59656C2.61248 6.259 3.02636 6.12631 3.36461 6.29956C3.70286 6.47281 3.83555 6.88738 3.66161 7.22563C2.01436 10.4253 2.61936 14.2863 5.16655 16.8334C6.72442 18.392 8.79586 19.25 11 19.25C13.2034 19.25 15.2755 18.392 16.8334 16.8334C18.3913 15.2749 19.25 13.2034 19.25 11C19.25 8.79588 18.392 6.72444 16.8334 5.16656C15.2749 3.60869 13.2041 2.75 11 2.75C8.79586 2.75 6.72442 3.60869 5.16655 5.16656C4.89773 5.43537 4.46323 5.43537 4.19442 5.16656C3.92561 4.89775 3.92561 4.46325 4.19442 4.19444C6.01217 2.37669 8.42873 1.375 11 1.375C13.5712 1.375 15.9885 2.37669 17.8055 4.19444C19.624 6.01219 20.625 8.42875 20.625 11C20.625 13.5706 19.624 15.9878 17.8055 17.8056C15.9885 19.624 13.5712 20.625 11 20.625Z" fill="url(#paint0_linear_162_191)"/>
<path d="M11 13.75C10.2658 13.75 9.57486 13.464 9.05511 12.9442C7.98261 11.8717 7.98261 10.1276 9.05511 9.05574C9.91929 8.19155 14.0546 6.55393 14.8748 6.23424C15.1299 6.13524 15.4179 6.19574 15.6104 6.38893C15.8029 6.58211 15.8641 6.87018 15.7651 7.12455C15.4454 7.94474 13.8078 12.0807 12.9436 12.9442C12.4252 13.464 11.7343 13.75 11 13.75ZM13.8793 8.12143C12.1929 8.82818 10.3978 9.65799 10.0279 10.0279C9.49167 10.5641 9.49167 11.4359 10.0279 11.9721C10.5477 12.4919 11.4531 12.4919 11.9729 11.9721C12.342 11.6015 13.1725 9.80786 13.8793 8.12143Z" fill="url(#paint1_linear_162_191)"/>
<defs>
<linearGradient id="paint0_linear_162_191" x1="10.9956" y1="1.375" x2="10.9956" y2="20.625" gradientUnits="userSpaceOnUse">
<stop stop-color="#57BCFF"/>
<stop offset="1" stop-color="#882ADF"/>
</linearGradient>
<linearGradient id="paint1_linear_162_191" x1="12.0313" y1="6.18732" x2="12.0313" y2="13.75" gradientUnits="userSpaceOnUse">
<stop stop-color="#57BCFF"/>
<stop offset="1" stop-color="#882ADF"/>
</linearGradient>
</defs>
</svg>
