<svg width="219" height="66" viewBox="0 0 146 44" fill="none" xmlns="http://www.w3.org/2000/svg">
<circle cx="21.985" cy="21.985" r="21.985" fill="url(#paint0_linear_105_130)"/>
<g clip-path="url(#clip0_105_130)">
<path d="M31.7298 27.7961C31.678 27.333 31.4774 26.9104 31.1584 26.5812L32.4595 27.4382C32.5484 27.4968 32.6492 27.5262 32.7501 27.5262C32.8447 27.5262 32.9398 27.5003 33.0251 27.4483C33.2015 27.3409 33.2977 27.1465 33.276 26.9411C33.1822 26.0542 32.704 25.2599 31.9642 24.7619L31.8049 24.6547L31.9199 24.3967L28.2309 22.627L26.9207 20.4034C26.4702 19.4148 25.5704 18.682 24.511 18.442L22.7052 18.033V17.5149C23.5345 17.1362 24.1579 16.3834 24.3584 15.4732C24.8463 15.3897 25.2193 14.9647 25.2193 14.4532C25.2193 14.1863 25.1172 13.9331 24.936 13.7417V11.5317C24.936 10.1157 23.7894 8.96289 22.3759 8.95195C22.1985 8.75391 21.9413 8.62808 21.6533 8.62749C21.6501 8.62749 21.6469 8.62749 21.6437 8.62749C20.6976 8.62749 19.8004 9.00274 19.1167 9.68457C18.4162 10.3831 18.0305 11.3067 18.0305 12.2852V13.7542C17.8566 13.9439 17.7586 14.1928 17.7586 14.4532C17.7586 14.9647 18.1316 15.3896 18.6196 15.4732C18.8219 16.3917 19.4548 17.1499 20.2954 17.5251V18.0329L18.4895 18.442C17.4302 18.682 16.5304 19.4148 16.0799 20.4034L14.7697 22.627L11.0807 24.3967L11.1957 24.6547L11.0364 24.7618C10.2965 25.2598 9.81841 26.0541 9.72461 26.9411C9.70293 27.1465 9.79897 27.3408 9.97539 27.4481C10.0608 27.5002 10.1557 27.5262 10.2505 27.5262C10.3514 27.5262 10.4521 27.4967 10.5411 27.4381L11.1062 27.0659C11.0636 27.1976 11.0331 27.3351 11.0171 27.4775C10.9827 27.7855 11.0182 28.0853 11.1098 28.3618H9.57324V32.3725H33.4273V28.3618H31.7154C31.7452 28.1788 31.7515 27.9891 31.7298 27.7961ZM29.8416 29.6124L22.093 30.1486L21.9185 28.4848L29.4998 26.4404C29.917 26.3982 30.3266 26.5191 30.6549 26.7812C30.9877 27.0471 31.1972 27.4269 31.2446 27.8503C31.3422 28.7228 30.7131 29.5122 29.8416 29.6124ZM20.8047 30.1375L19.1432 30.159L17.4572 30.3465C17.4515 29.7252 18.0308 29.1702 18.8003 29.0841L20.6636 28.8757L20.8047 30.1375ZM18.746 28.5989C18.0421 28.6776 17.46 29.0687 17.1692 29.5888L12.9054 29.2939C12.0339 29.1938 11.4049 28.4044 11.5024 27.5319C11.5932 26.7236 12.2739 26.114 13.0857 26.114C13.1399 26.114 13.1942 26.1167 13.2474 26.1219L21.026 28.2198L20.6064 28.3329L20.6128 28.3901L18.746 28.5989ZM17.4814 26.7581L13.8396 25.776L16.3511 24.7743L17.4814 23.2762V26.7581ZM21.307 30.2031L21.1383 28.6952L21.441 28.6136L21.6056 30.1824L21.307 30.2031ZM32.7904 26.9925C32.7911 26.9987 32.7931 27.0179 32.7712 27.0312C32.7494 27.0445 32.7333 27.0338 32.728 27.0304L31.2083 26.0293L31.618 25.1176L31.6915 25.167C32.3113 25.5841 32.7118 26.2495 32.7904 26.9925ZM24.4251 14.9439C24.4262 14.9096 24.4276 14.8754 24.4276 14.8408V14.8067C24.5346 14.7605 24.6297 14.6923 24.7083 14.6084C24.6647 14.7557 24.5607 14.8769 24.4251 14.9439ZM24.4478 11.5317V14.0351C24.4478 14.0759 24.4405 14.1149 24.4276 14.1513V14.1422C24.4276 13.823 24.3328 13.5149 24.1532 13.2512C24.029 13.0688 23.9633 12.8556 23.9633 12.635V12.2557C23.9633 11.6484 23.4693 11.1544 22.8639 11.1544L22.5268 11.1521C22.5892 10.9486 22.6228 10.7326 22.6228 10.5089V9.59399C22.6228 9.54697 22.6183 9.50117 22.6117 9.45591C23.645 9.58267 24.4478 10.4649 24.4478 11.5317ZM18.5188 12.2852C18.5188 11.4374 18.8536 10.6366 19.4615 10.0303C20.0531 9.44033 20.8278 9.11577 21.6438 9.11577C21.6466 9.11577 21.6493 9.11577 21.6521 9.11577H21.6571C21.9204 9.11631 22.1346 9.33081 22.1346 9.59399V10.5089C22.1346 11.4502 21.3687 12.2162 20.4273 12.2162C19.3924 12.2162 18.5504 13.0582 18.5504 14.0931V14.1192C18.53 14.0688 18.5189 14.0138 18.5189 13.9564V12.2852H18.5188ZM18.258 14.5627C18.3385 14.6545 18.4373 14.7306 18.5503 14.7846V14.8408C18.5503 14.8754 18.5518 14.9096 18.553 14.9439C18.4036 14.8701 18.2922 14.7305 18.258 14.5627ZM19.0386 14.8408V14.0931C19.0386 13.3274 19.6616 12.7045 20.4272 12.7045C21.225 12.7045 21.9247 12.2769 22.3092 11.6388L22.862 11.6428C23.2 11.6428 23.475 11.9177 23.475 12.2557V12.635C23.475 12.9541 23.5698 13.2622 23.7495 13.5261C23.8737 13.7084 23.9393 13.9215 23.9393 14.1422V14.8408C23.9393 16.1919 22.8401 17.2912 21.489 17.2912C20.1379 17.2912 19.0386 16.1919 19.0386 14.8408ZM21.489 17.7795C21.7402 17.7795 21.984 17.7477 22.2169 17.6881V18.0727C21.7593 18.2671 21.2414 18.2671 20.7837 18.0727V17.6933C21.0098 17.7493 21.2459 17.7795 21.489 17.7795ZM15.115 23.0029L16.5072 20.64L16.5194 20.6165C16.9054 19.7605 17.6822 19.1256 18.5974 18.9182L20.5105 18.4849C20.8237 18.6326 21.1619 18.7074 21.5003 18.7074C21.8388 18.7074 22.177 18.6327 22.4901 18.4849L24.4033 18.9182C25.3185 19.1256 26.0953 19.7605 26.4814 20.6165L27.8858 23.0029L31.2807 24.6315L30.6518 26.0417L30.6649 26.0476L30.6087 26.1725C30.2478 25.9869 29.8403 25.911 29.4278 25.9572L29.4093 25.9592L25.5193 27.0082V23.2762L26.6497 24.7743L29.1717 25.7803L29.3526 25.3267L26.9572 24.3713L25.5193 22.4656V21.766H25.031V27.1399L21.9637 27.9671L17.9698 26.8899V21.7659H17.4815V22.4655L16.0436 24.3712L12.8697 25.6372C12.6492 25.66 12.4383 25.717 12.2429 25.8036L11.7202 24.6315L15.115 23.0029ZM10.2726 27.0304C10.2673 27.0338 10.2511 27.0445 10.2293 27.0312C10.2076 27.0179 10.2096 26.9988 10.2103 26.9925C10.2888 26.2495 10.6893 25.5841 11.3091 25.167L11.3826 25.1175L11.7923 26.0293L10.2726 27.0304ZM32.939 28.8501V31.8842H10.0615V28.8501H11.3456C11.6744 29.3513 12.2154 29.7081 12.8562 29.7797L16.9945 30.0662C16.968 30.2078 16.9615 30.3541 16.9781 30.5021C17.0001 30.6985 17.1767 30.8434 17.383 30.8434C17.3993 30.8434 17.4158 30.8424 17.4324 30.8406L19.1616 30.6471L20.8628 30.625L20.8738 30.7225L29.8806 30.0992L29.8909 30.0982C30.6605 30.0121 31.2856 29.5146 31.5725 28.85H32.939V28.8501Z" fill="white"/>
<path d="M20.3019 14.5117C20.2049 14.5117 20.126 14.4328 20.126 14.3357H19.6377C19.6377 14.702 19.9357 15 20.3019 15C20.6682 15 20.9662 14.702 20.9662 14.3357H20.4779C20.4779 14.4328 20.399 14.5117 20.3019 14.5117Z" fill="white"/>
<path d="M22.6984 15C23.0647 15 23.3627 14.702 23.3627 14.3357H22.8744C22.8744 14.4327 22.7956 14.5117 22.6984 14.5117C22.6015 14.5117 22.5225 14.4328 22.5225 14.3357H22.0342C22.0342 14.702 22.3322 15 22.6984 15Z" fill="white"/>
<path d="M21.7446 20.3925H21.2563V26.9818H21.7446V20.3925Z" fill="white"/>
<path d="M28.1406 10.9179H27.6523V11.6527H28.1406V10.9179Z" fill="white"/>
<path d="M28.1406 12.174H27.6523V12.9088H28.1406V12.174Z" fill="white"/>
<path d="M27.6361 11.6692H26.9014V12.1575H27.6361V11.6692Z" fill="white"/>
<path d="M28.892 11.6692H28.1572V12.1575H28.892V11.6692Z" fill="white"/>
<path d="M15.207 17.1072H14.7188V17.8419H15.207V17.1072Z" fill="white"/>
<path d="M15.207 18.3632H14.7188V19.098H15.207V18.3632Z" fill="white"/>
<path d="M14.7021 17.8584H13.9673V18.3467H14.7021V17.8584Z" fill="white"/>
<path d="M15.9579 17.8584H15.2231V18.3467H15.9579V17.8584Z" fill="white"/>
</g>
<path d="M58.0984 30.985H54.5828L60.9837 12.8032H65.0498L71.4596 30.985H67.9439L63.0878 16.5319H62.9457L58.0984 30.985ZM58.2138 23.8561H67.8019V26.5017H58.2138V23.8561ZM84.2703 20.9531L81.3406 21.2727C81.2577 20.9767 81.1127 20.6986 80.9056 20.4381C80.7044 20.1777 80.4321 19.9676 80.0888 19.8078C79.7455 19.648 79.3253 19.5681 78.8282 19.5681C78.1594 19.5681 77.5971 19.7131 77.1414 20.0031C76.6916 20.2931 76.4696 20.669 76.4755 21.1306C76.4696 21.5272 76.6146 21.8497 76.9106 22.0983C77.2124 22.3469 77.7096 22.5511 78.402 22.7109L80.728 23.208C82.0183 23.4862 82.9771 23.9271 83.6044 24.5308C84.2377 25.1345 84.5573 25.9246 84.5633 26.9012C84.5573 27.7594 84.3058 28.517 83.8086 29.1739C83.3174 29.825 82.6338 30.334 81.7579 30.7009C80.8819 31.0679 79.8758 31.2514 78.7394 31.2514C77.0704 31.2514 75.7268 30.9022 74.7089 30.2038C73.6909 29.4995 73.0842 28.5199 72.8889 27.2652L76.0228 26.9634C76.1648 27.5789 76.4667 28.0435 76.9283 28.3572C77.39 28.6709 77.9907 28.8277 78.7305 28.8277C79.494 28.8277 80.1066 28.6709 80.5682 28.3572C81.0358 28.0435 81.2696 27.6558 81.2696 27.1942C81.2696 26.8036 81.1187 26.481 80.8168 26.2265C80.5209 25.972 80.0592 25.7767 79.4319 25.6406L77.1059 25.1523C75.7979 24.88 74.8302 24.4213 74.2028 23.7762C73.5754 23.1252 73.2647 22.3025 73.2706 21.3082C73.2647 20.4677 73.4926 19.7398 73.9542 19.1242C74.4218 18.5028 75.0699 18.0234 75.8985 17.686C76.733 17.3427 77.6948 17.1711 78.7838 17.1711C80.3818 17.1711 81.6395 17.5114 82.5569 18.192C83.4802 18.8727 84.0513 19.793 84.2703 20.9531ZM93.1614 31.2514C91.8002 31.2514 90.6313 30.9525 89.6547 30.3547C88.6841 29.7569 87.9354 28.9313 87.4086 27.8778C86.8878 26.8183 86.6274 25.5991 86.6274 24.2201C86.6274 22.8352 86.8937 21.613 87.4264 20.5536C87.959 19.4882 88.7107 18.6596 89.6813 18.0678C90.6579 17.47 91.812 17.1711 93.1437 17.1711C94.2505 17.1711 95.23 17.3753 96.0823 17.7837C96.9404 18.1861 97.624 18.7573 98.133 19.4971C98.642 20.231 98.932 21.0892 99.0031 22.0717H95.9313C95.807 21.4147 95.5111 20.8672 95.0435 20.4293C94.5819 19.9854 93.9634 19.7634 93.1881 19.7634C92.5311 19.7634 91.9541 19.941 91.4569 20.2961C90.9597 20.6453 90.5721 21.1484 90.2939 21.8053C90.0216 22.4623 89.8855 23.2495 89.8855 24.1668C89.8855 25.096 90.0216 25.8951 90.2939 26.5639C90.5662 27.2267 90.9479 27.7387 91.4391 28.0997C91.9363 28.4548 92.5193 28.6324 93.1881 28.6324C93.6616 28.6324 94.0847 28.5436 94.4576 28.3661C94.8364 28.1826 95.153 27.9192 95.4075 27.5759C95.662 27.2326 95.8366 26.8154 95.9313 26.3241H99.0031C98.9261 27.2889 98.642 28.1441 98.1508 28.8898C97.6595 29.6297 96.9908 30.2097 96.1444 30.6299C95.298 31.0442 94.3037 31.2514 93.1614 31.2514ZM107.679 31.2514C106.312 31.2514 105.131 30.9673 104.137 30.3991C103.148 29.825 102.388 29.0141 101.855 27.9665C101.322 26.913 101.056 25.6731 101.056 24.2467C101.056 22.844 101.322 21.613 101.855 20.5536C102.394 19.4882 103.145 18.6596 104.11 18.0678C105.075 17.47 106.208 17.1711 107.51 17.1711C108.351 17.1711 109.144 17.3072 109.89 17.5795C110.641 17.8458 111.304 18.2601 111.878 18.8224C112.458 19.3846 112.914 20.1008 113.245 20.9708C113.577 21.8349 113.742 22.8648 113.742 24.0603V25.0457H102.565V22.8795H110.662C110.656 22.264 110.523 21.7165 110.262 21.2371C110.002 20.7518 109.638 20.3701 109.17 20.0919C108.709 19.8137 108.17 19.6746 107.555 19.6746C106.898 19.6746 106.321 19.8344 105.823 20.154C105.326 20.4677 104.939 20.882 104.66 21.3969C104.388 21.9059 104.249 22.4652 104.243 23.0749V24.9658C104.243 25.7589 104.388 26.4396 104.678 27.0077C104.968 27.57 105.374 28.0021 105.894 28.3039C106.415 28.5998 107.025 28.7478 107.723 28.7478C108.191 28.7478 108.614 28.6827 108.993 28.5525C109.372 28.4164 109.7 28.2181 109.978 27.9577C110.256 27.6973 110.467 27.3747 110.609 26.99L113.609 27.3273C113.42 28.1204 113.059 28.8129 112.526 29.4048C111.999 29.9907 111.325 30.4464 110.502 30.7719C109.679 31.0915 108.738 31.2514 107.679 31.2514ZM119.675 22.995V30.985H116.461V17.3487H119.533V19.6658H119.693C120.007 18.9023 120.507 18.2956 121.193 17.8458C121.886 17.396 122.741 17.1711 123.759 17.1711C124.7 17.1711 125.52 17.3723 126.218 17.7748C126.922 18.1773 127.467 18.7602 127.852 19.5237C128.242 20.2872 128.435 21.2135 128.429 22.3025V30.985H125.215V22.7996C125.215 21.8882 124.978 21.175 124.505 20.6601C124.037 20.1452 123.389 19.8877 122.56 19.8877C121.998 19.8877 121.498 20.012 121.06 20.2606C120.628 20.5032 120.288 20.8554 120.039 21.317C119.796 21.7787 119.675 22.338 119.675 22.995ZM136.756 31.2247C135.685 31.2247 134.726 30.9495 133.88 30.3991C133.033 29.8487 132.365 29.0496 131.873 28.0021C131.382 26.9545 131.136 25.682 131.136 24.1846C131.136 22.6694 131.385 21.391 131.882 20.3494C132.385 19.3018 133.063 18.5116 133.915 17.979C134.767 17.4404 135.717 17.1711 136.765 17.1711C137.564 17.1711 138.221 17.3072 138.736 17.5795C139.251 17.8458 139.659 18.1684 139.961 18.5472C140.263 18.92 140.497 19.2722 140.662 19.6036H140.795V12.8032H144.018V30.985H140.858V28.8366H140.662C140.497 29.168 140.257 29.5202 139.943 29.893C139.63 30.26 139.215 30.5737 138.7 30.8341C138.185 31.0945 137.537 31.2247 136.756 31.2247ZM137.653 28.588C138.333 28.588 138.913 28.4045 139.393 28.0376C139.872 27.6647 140.236 27.1468 140.485 26.484C140.733 25.8211 140.858 25.0487 140.858 24.1668C140.858 23.285 140.733 22.5185 140.485 21.8675C140.242 21.2164 139.881 20.7104 139.402 20.3494C138.928 19.9883 138.345 19.8078 137.653 19.8078C136.937 19.8078 136.339 19.9942 135.859 20.3671C135.38 20.74 135.019 21.2549 134.776 21.9119C134.534 22.5688 134.412 23.3205 134.412 24.1668C134.412 25.0191 134.534 25.7796 134.776 26.4484C135.025 27.1113 135.389 27.6351 135.868 28.0198C136.354 28.3986 136.948 28.588 137.653 28.588Z" fill="black"/>
<defs>
<linearGradient id="paint0_linear_105_130" x1="21.985" y1="0" x2="21.985" y2="43.97" gradientUnits="userSpaceOnUse">
<stop stop-color="#57BCFF"/>
<stop offset="1" stop-color="#882ADF"/>
</linearGradient>
<clipPath id="clip0_105_130">
<rect width="25" height="25" fill="white" transform="translate(9 8)"/>
</clipPath>
</defs>
</svg>
