<svg width="385" height="362" viewBox="0 0 385 362" fill="none" xmlns="http://www.w3.org/2000/svg">
<path d="M49.7 295.7H21.9L17.3 309H2.6L27.7 239.1H44L69.1 309H54.3L49.7 295.7ZM45.9 284.5L35.8 255.3L25.7 284.5H45.9ZM99.682 309.9C95.1487 309.9 91.082 309.1 87.482 307.5C83.882 305.833 81.0154 303.6 78.882 300.8C76.8154 298 75.682 294.9 75.482 291.5H89.582C89.8487 293.633 90.882 295.4 92.682 296.8C94.5487 298.2 96.8487 298.9 99.582 298.9C102.249 298.9 104.315 298.367 105.782 297.3C107.315 296.233 108.082 294.867 108.082 293.2C108.082 291.4 107.149 290.067 105.282 289.2C103.482 288.267 100.582 287.267 96.582 286.2C92.4487 285.2 89.0487 284.167 86.382 283.1C83.782 282.033 81.5154 280.4 79.582 278.2C77.7154 276 76.782 273.033 76.782 269.3C76.782 266.233 77.6487 263.433 79.382 260.9C81.182 258.367 83.7154 256.367 86.982 254.9C90.3154 253.433 94.2154 252.7 98.682 252.7C105.282 252.7 110.549 254.367 114.482 257.7C118.415 260.967 120.582 265.4 120.982 271H107.582C107.382 268.8 106.449 267.067 104.782 265.8C103.182 264.467 101.015 263.8 98.282 263.8C95.7487 263.8 93.782 264.267 92.382 265.2C91.0487 266.133 90.382 267.433 90.382 269.1C90.382 270.967 91.3154 272.4 93.182 273.4C95.0487 274.333 97.9487 275.3 101.882 276.3C105.882 277.3 109.182 278.333 111.782 279.4C114.382 280.467 116.615 282.133 118.482 284.4C120.415 286.6 121.415 289.533 121.482 293.2C121.482 296.4 120.582 299.267 118.782 301.8C117.049 304.333 114.515 306.333 111.182 307.8C107.915 309.2 104.082 309.9 99.682 309.9ZM129.374 281.3C129.374 275.567 130.541 270.567 132.874 266.3C135.208 261.967 138.441 258.633 142.574 256.3C146.708 253.9 151.441 252.7 156.774 252.7C163.641 252.7 169.308 254.433 173.774 257.9C178.308 261.3 181.341 266.1 182.874 272.3H167.774C166.974 269.9 165.608 268.033 163.674 266.7C161.808 265.3 159.474 264.6 156.674 264.6C152.674 264.6 149.508 266.067 147.174 269C144.841 271.867 143.674 275.967 143.674 281.3C143.674 286.567 144.841 290.667 147.174 293.6C149.508 296.467 152.674 297.9 156.674 297.9C162.341 297.9 166.041 295.367 167.774 290.3H182.874C181.341 296.3 178.308 301.067 173.774 304.6C169.241 308.133 163.574 309.9 156.774 309.9C151.441 309.9 146.708 308.733 142.574 306.4C138.441 304 135.208 300.667 132.874 296.4C130.541 292.067 129.374 287.033 129.374 281.3ZM244.63 280.1C244.63 282.1 244.497 283.9 244.23 285.5H203.73C204.064 289.5 205.464 292.633 207.93 294.9C210.397 297.167 213.43 298.3 217.03 298.3C222.23 298.3 225.93 296.067 228.13 291.6H243.23C241.63 296.933 238.564 301.333 234.03 304.8C229.497 308.2 223.93 309.9 217.33 309.9C211.997 309.9 207.197 308.733 202.93 306.4C198.73 304 195.43 300.633 193.03 296.3C190.697 291.967 189.53 286.967 189.53 281.3C189.53 275.567 190.697 270.533 193.03 266.2C195.364 261.867 198.63 258.533 202.83 256.2C207.03 253.867 211.864 252.7 217.33 252.7C222.597 252.7 227.297 253.833 231.43 256.1C235.63 258.367 238.864 261.6 241.13 265.8C243.464 269.933 244.63 274.7 244.63 280.1ZM230.13 276.1C230.064 272.5 228.764 269.633 226.23 267.5C223.697 265.3 220.597 264.2 216.93 264.2C213.464 264.2 210.53 265.267 208.13 267.4C205.797 269.467 204.364 272.367 203.83 276.1H230.13ZM285.549 252.8C292.149 252.8 297.483 254.9 301.549 259.1C305.616 263.233 307.649 269.033 307.649 276.5V309H293.649V278.4C293.649 274 292.549 270.633 290.349 268.3C288.149 265.9 285.149 264.7 281.349 264.7C277.483 264.7 274.416 265.9 272.149 268.3C269.949 270.633 268.849 274 268.849 278.4V309H254.849V253.6H268.849V260.5C270.716 258.1 273.083 256.233 275.949 254.9C278.883 253.5 282.083 252.8 285.549 252.8ZM317.362 281.1C317.362 275.5 318.462 270.533 320.662 266.2C322.929 261.867 325.996 258.533 329.863 256.2C333.729 253.867 338.029 252.7 342.763 252.7C346.363 252.7 349.796 253.5 353.063 255.1C356.329 256.633 358.929 258.7 360.863 261.3V235H375.063V309H360.863V300.8C359.129 303.533 356.696 305.733 353.563 307.4C350.429 309.067 346.796 309.9 342.663 309.9C337.996 309.9 333.729 308.7 329.863 306.3C325.996 303.9 322.929 300.533 320.662 296.2C318.462 291.8 317.362 286.767 317.362 281.1ZM360.963 281.3C360.963 277.9 360.296 275 358.963 272.6C357.629 270.133 355.829 268.267 353.563 267C351.296 265.667 348.863 265 346.263 265C343.663 265 341.263 265.633 339.062 266.9C336.863 268.167 335.063 270.033 333.663 272.5C332.329 274.9 331.663 277.767 331.663 281.1C331.663 284.433 332.329 287.367 333.663 289.9C335.063 292.367 336.863 294.267 339.062 295.6C341.329 296.933 343.729 297.6 346.263 297.6C348.863 297.6 351.296 296.967 353.563 295.7C355.829 294.367 357.629 292.5 358.963 290.1C360.296 287.633 360.963 284.7 360.963 281.3Z" fill="#49444C"/>
<path d="M5.04 331.31V338.3H12.66V340.55H5.04V347.75H13.56V350H2.31V329.06H13.56V331.31H5.04ZM20.4209 347.78H27.7409V350H17.6909V329.09H20.4209V347.78ZM33.3701 331.31V338.3H40.9901V340.55H33.3701V347.75H41.8901V350H30.6401V329.06H41.8901V331.31H33.3701ZM63.3009 329.09L55.4109 350H52.2609L44.3709 329.09H47.2809L53.8509 347.12L60.4209 329.09H63.3009ZM78.6544 345.35H69.5344L67.8544 350H64.9744L72.5344 329.21H75.6844L83.2144 350H80.3344L78.6544 345.35ZM77.8744 343.13L74.0944 332.57L70.3144 343.13H77.8744ZM99.3792 329.09V331.31H93.6792V350H90.9492V331.31H85.2192V329.09H99.3792ZM105.47 331.31V338.3H113.09V340.55H105.47V347.75H113.99V350H102.74V329.06H113.99V331.31H105.47ZM140.759 329.09L133.949 342.11V350H131.219V342.11L124.379 329.09H127.409L132.569 339.68L137.729 329.09H140.759ZM153.118 350.21C151.178 350.21 149.408 349.76 147.808 348.86C146.208 347.94 144.938 346.67 143.998 345.05C143.078 343.41 142.618 341.57 142.618 339.53C142.618 337.49 143.078 335.66 143.998 334.04C144.938 332.4 146.208 331.13 147.808 330.23C149.408 329.31 151.178 328.85 153.118 328.85C155.078 328.85 156.858 329.31 158.458 330.23C160.058 331.13 161.318 332.39 162.238 334.01C163.158 335.63 163.618 337.47 163.618 339.53C163.618 341.59 163.158 343.43 162.238 345.05C161.318 346.67 160.058 347.94 158.458 348.86C156.858 349.76 155.078 350.21 153.118 350.21ZM153.118 347.84C154.578 347.84 155.888 347.5 157.048 346.82C158.228 346.14 159.148 345.17 159.808 343.91C160.488 342.65 160.828 341.19 160.828 339.53C160.828 337.85 160.488 336.39 159.808 335.15C159.148 333.89 158.238 332.92 157.078 332.24C155.918 331.56 154.598 331.22 153.118 331.22C151.638 331.22 150.318 331.56 149.158 332.24C147.998 332.92 147.078 333.89 146.398 335.15C145.738 336.39 145.408 337.85 145.408 339.53C145.408 341.19 145.738 342.65 146.398 343.91C147.078 345.17 147.998 346.14 149.158 346.82C150.338 347.5 151.658 347.84 153.118 347.84ZM169.892 329.09V342.32C169.892 344.18 170.342 345.56 171.242 346.46C172.162 347.36 173.432 347.81 175.052 347.81C176.652 347.81 177.902 347.36 178.802 346.46C179.722 345.56 180.182 344.18 180.182 342.32V329.09H182.912V342.29C182.912 344.03 182.562 345.5 181.862 346.7C181.162 347.88 180.212 348.76 179.012 349.34C177.832 349.92 176.502 350.21 175.022 350.21C173.542 350.21 172.202 349.92 171.002 349.34C169.822 348.76 168.882 347.88 168.182 346.7C167.502 345.5 167.162 344.03 167.162 342.29V329.09H169.892ZM198.476 350L193.496 341.45H190.196V350H187.466V329.09H194.216C195.796 329.09 197.126 329.36 198.206 329.9C199.306 330.44 200.126 331.17 200.666 332.09C201.206 333.01 201.476 334.06 201.476 335.24C201.476 336.68 201.056 337.95 200.216 339.05C199.396 340.15 198.156 340.88 196.496 341.24L201.746 350H198.476ZM190.196 339.26H194.216C195.696 339.26 196.806 338.9 197.546 338.18C198.286 337.44 198.656 336.46 198.656 335.24C198.656 334 198.286 333.04 197.546 332.36C196.826 331.68 195.716 331.34 194.216 331.34H190.196V339.26ZM239.996 329.09L233.936 350H230.876L226.016 333.17L220.976 350L217.946 350.03L212.096 329.09H215.006L219.566 346.82L224.606 329.09H227.666L232.466 346.76L237.056 329.09H239.996ZM245.714 331.31V338.3H253.334V340.55H245.714V347.75H254.234V350H242.984V329.06H254.234V331.31H245.714ZM261.095 347.78H268.415V350H258.365V329.09H261.095V347.78ZM274.044 347.78H281.364V350H271.314V329.09H274.044V347.78ZM295.663 337.85V340.16H283.693V337.85H295.663ZM311.257 339.23C312.017 339.35 312.707 339.66 313.327 340.16C313.967 340.66 314.467 341.28 314.827 342.02C315.207 342.76 315.397 343.55 315.397 344.39C315.397 345.45 315.127 346.41 314.587 347.27C314.047 348.11 313.257 348.78 312.217 349.28C311.197 349.76 309.987 350 308.587 350H300.787V329.09H308.287C309.707 329.09 310.917 329.33 311.917 329.81C312.917 330.27 313.667 330.9 314.167 331.7C314.667 332.5 314.917 333.4 314.917 334.4C314.917 335.64 314.577 336.67 313.897 337.49C313.237 338.29 312.357 338.87 311.257 339.23ZM303.517 338.12H308.107C309.387 338.12 310.377 337.82 311.077 337.22C311.777 336.62 312.127 335.79 312.127 334.73C312.127 333.67 311.777 332.84 311.077 332.24C310.377 331.64 309.367 331.34 308.047 331.34H303.517V338.12ZM308.347 347.75C309.707 347.75 310.767 347.43 311.527 346.79C312.287 346.15 312.667 345.26 312.667 344.12C312.667 342.96 312.267 342.05 311.467 341.39C310.667 340.71 309.597 340.37 308.257 340.37H303.517V347.75H308.347ZM321.915 331.31V338.3H329.535V340.55H321.915V347.75H330.435V350H319.185V329.06H330.435V331.31H321.915ZM337.296 329.09V350H334.566V329.09H337.296ZM358.389 350H355.659L344.679 333.35V350H341.949V329.06H344.679L355.659 345.68V329.06H358.389V350ZM378.882 335.15C378.302 333.93 377.462 332.99 376.362 332.33C375.262 331.65 373.982 331.31 372.522 331.31C371.062 331.31 369.742 331.65 368.562 332.33C367.402 332.99 366.482 333.95 365.802 335.21C365.142 336.45 364.812 337.89 364.812 339.53C364.812 341.17 365.142 342.61 365.802 343.85C366.482 345.09 367.402 346.05 368.562 346.73C369.742 347.39 371.062 347.72 372.522 347.72C374.562 347.72 376.242 347.11 377.562 345.89C378.882 344.67 379.652 343.02 379.872 340.94H371.532V338.72H382.782V340.82C382.622 342.54 382.082 344.12 381.162 345.56C380.242 346.98 379.032 348.11 377.532 348.95C376.032 349.77 374.362 350.18 372.522 350.18C370.582 350.18 368.812 349.73 367.212 348.83C365.612 347.91 364.342 346.64 363.402 345.02C362.482 343.4 362.022 341.57 362.022 339.53C362.022 337.49 362.482 335.66 363.402 334.04C364.342 332.4 365.612 331.13 367.212 330.23C368.812 329.31 370.582 328.85 372.522 328.85C374.742 328.85 376.702 329.4 378.402 330.5C380.122 331.6 381.372 333.15 382.152 335.15H378.882Z" fill="#49444C"/>
<path d="M262.065 147.822C213.782 147.822 202.68 136.72 202.68 88.4365C202.68 87.7258 202.398 87.0443 201.895 86.5418C201.393 86.0393 200.711 85.757 200 85.757C199.29 85.757 198.608 86.0393 198.106 86.5418C197.603 87.0443 197.321 87.7258 197.321 88.4365C197.321 136.72 186.219 147.822 137.935 147.822C137.225 147.822 136.543 148.104 136.041 148.607C135.538 149.109 135.256 149.791 135.256 150.501C135.256 151.212 135.538 151.894 136.041 152.396C136.543 152.899 137.225 153.181 137.935 153.181C186.219 153.181 197.321 164.283 197.321 212.562C197.321 213.273 197.603 213.954 198.106 214.457C198.608 214.959 199.29 215.242 200 215.242C200.711 215.242 201.393 214.959 201.895 214.457C202.398 213.954 202.68 213.273 202.68 212.562C202.68 164.283 213.782 153.181 262.065 153.181C262.776 153.181 263.458 152.899 263.96 152.396C264.463 151.894 264.745 151.212 264.745 150.501C264.745 149.791 264.463 149.109 263.96 148.607C263.458 148.104 262.776 147.822 262.065 147.822Z" fill="url(#paint0_linear_159_119)"/>
<path d="M244.5 179L324.27 222.249C325.166 222.735 326.129 221.726 325.603 220.854L199.345 11.4018C198.959 10.7613 198.032 10.7558 197.638 11.3916L67.9705 220.817C67.4315 221.688 68.3938 222.71 69.2951 222.224L149.5 179" stroke="url(#paint1_linear_159_119)" stroke-width="21" stroke-linecap="round"/>
<defs>
<linearGradient id="paint0_linear_159_119" x1="200" y1="85.757" x2="200" y2="215.242" gradientUnits="userSpaceOnUse">
<stop stop-color="#57BCFF"/>
<stop offset="1" stop-color="#882ADF"/>
</linearGradient>
<linearGradient id="paint1_linear_159_119" x1="196.75" y1="10" x2="196.75" y2="224" gradientUnits="userSpaceOnUse">
<stop stop-color="#57BCFF"/>
<stop offset="1" stop-color="#882ADF"/>
</linearGradient>
</defs>
</svg>
