<svg width="24" height="24" viewBox="0 0 24 24" fill="none" xmlns="http://www.w3.org/2000/svg">
<path d="M6 13C7.65685 13 9 11.6569 9 10C9 8.34315 7.65685 7 6 7C4.34315 7 3 8.34315 3 10C3 11.6569 4.34315 13 6 13Z" fill="url(#paint0_linear_162_182)"/>
<path d="M22 2H8V4H22V2Z" fill="url(#paint1_linear_162_182)"/>
<path d="M22 6H12V8H22V6Z" fill="url(#paint2_linear_162_182)"/>
<path d="M22 10H16V12H22V10Z" fill="url(#paint3_linear_162_182)"/>
<path d="M10 18.36L14.77 12.64L13.23 11.36L9.41 15.94C8.95586 15.1992 8.27287 14.6265 7.46432 14.3084C6.65577 13.9903 5.76563 13.9441 4.9285 14.1769C4.09137 14.4096 3.35279 14.9086 2.82443 15.5983C2.29607 16.2881 2.00667 17.1311 2 18V22H10V18.36Z" fill="url(#paint4_linear_162_182)"/>
<defs>
<linearGradient id="paint0_linear_162_182" x1="6" y1="7" x2="6" y2="13" gradientUnits="userSpaceOnUse">
<stop stop-color="#57BCFF"/>
<stop offset="1" stop-color="#882ADF"/>
</linearGradient>
<linearGradient id="paint1_linear_162_182" x1="15" y1="2" x2="15" y2="4" gradientUnits="userSpaceOnUse">
<stop stop-color="#57BCFF"/>
<stop offset="1" stop-color="#882ADF"/>
</linearGradient>
<linearGradient id="paint2_linear_162_182" x1="17" y1="6" x2="17" y2="8" gradientUnits="userSpaceOnUse">
<stop stop-color="#57BCFF"/>
<stop offset="1" stop-color="#882ADF"/>
</linearGradient>
<linearGradient id="paint3_linear_162_182" x1="19" y1="10" x2="19" y2="12" gradientUnits="userSpaceOnUse">
<stop stop-color="#57BCFF"/>
<stop offset="1" stop-color="#882ADF"/>
</linearGradient>
<linearGradient id="paint4_linear_162_182" x1="8.385" y1="11.36" x2="8.385" y2="22" gradientUnits="userSpaceOnUse">
<stop stop-color="#57BCFF"/>
<stop offset="1" stop-color="#882ADF"/>
</linearGradient>
</defs>
</svg>
