<svg width="27" height="27" viewBox="0 0 27 27" fill="none" xmlns="http://www.w3.org/2000/svg">
<path d="M25.2187 12.9944C16.1022 12.9944 14.006 10.8982 14.006 1.78171C14.006 1.64753 13.9527 1.51885 13.8579 1.42397C13.763 1.32909 13.6343 1.27579 13.5001 1.27579C13.3659 1.27579 13.2373 1.32909 13.1424 1.42397C13.0475 1.51885 12.9942 1.64753 12.9942 1.78171C12.9942 10.8982 10.898 12.9944 1.78156 12.9944C1.64738 12.9944 1.51869 13.0477 1.42382 13.1425C1.32894 13.2374 1.27563 13.3661 1.27563 13.5003C1.27563 13.6345 1.32894 13.7631 1.42382 13.858C1.51869 13.9529 1.64738 14.0062 1.78156 14.0062C10.898 14.0062 12.9942 16.1024 12.9942 25.218C12.9942 25.3522 13.0475 25.4809 13.1424 25.5758C13.2373 25.6706 13.3659 25.7239 13.5001 25.7239C13.6343 25.7239 13.763 25.6706 13.8579 25.5758C13.9527 25.4809 14.006 25.3522 14.006 25.218C14.006 16.1024 16.1022 14.0062 25.2187 14.0062C25.3529 14.0062 25.4815 13.9529 25.5764 13.858C25.6713 13.7631 25.7246 13.6345 25.7246 13.5003C25.7246 13.3661 25.6713 13.2374 25.5764 13.1425C25.4815 13.0477 25.3529 12.9944 25.2187 12.9944Z" fill="url(#paint0_linear_162_179)"/>
<defs>
<linearGradient id="paint0_linear_162_179" x1="13.5001" y1="1.27579" x2="13.5001" y2="25.7239" gradientUnits="userSpaceOnUse">
<stop stop-color="#57BCFF"/>
<stop offset="1" stop-color="#882ADF"/>
</linearGradient>
</defs>
</svg>
