<svg width="500" height="500" viewBox="0 0 500 500" fill="none" xmlns="http://www.w3.org/2000/svg">
<path d="M500 382.4H0V382.65H500V382.4Z" fill="#EBEBEB"/>
<path d="M449.9 398.49H416.78V398.74H449.9V398.49Z" fill="#EBEBEB"/>
<path d="M331.22 401.21H322.53V401.46H331.22V401.21Z" fill="#EBEBEB"/>
<path d="M415.78 389.21H396.59V389.46H415.78V389.21Z" fill="#EBEBEB"/>
<path d="M95.65 390.89H52.46V391.14H95.65V390.89Z" fill="#EBEBEB"/>
<path d="M110.89 390.89H104.56V391.14H110.89V390.89Z" fill="#EBEBEB"/>
<path d="M225.15 395.11H131.47V395.36H225.15V395.11Z" fill="#EBEBEB"/>
<path d="M237 337.8H43.91C42.3973 337.797 40.9475 337.195 39.8788 336.124C38.8102 335.053 38.21 333.603 38.21 332.09V60.66C38.2231 59.156 38.8292 57.718 39.8964 56.6582C40.9637 55.5985 42.4059 55.0026 43.91 55H237C238.514 55 239.967 55.6016 241.038 56.6724C242.108 57.7433 242.71 59.1956 242.71 60.71V332.09C242.71 333.604 242.108 335.057 241.038 336.128C239.967 337.198 238.514 337.8 237 337.8ZM43.91 55.2C42.4636 55.2026 41.0774 55.7791 40.0556 56.8027C39.0338 57.8264 38.46 59.2136 38.46 60.66V332.09C38.46 333.536 39.0338 334.924 40.0556 335.947C41.0774 336.971 42.4636 337.547 43.91 337.55H237C238.447 337.547 239.834 336.971 240.858 335.948C241.881 334.924 242.457 333.537 242.46 332.09V60.66C242.457 59.2127 241.881 57.8255 240.858 56.8021C239.834 55.7787 238.447 55.2026 237 55.2H43.91Z" fill="#EBEBEB"/>
<path d="M453.31 337.8H260.21C258.696 337.797 257.246 337.195 256.175 336.125C255.105 335.054 254.503 333.604 254.5 332.09V60.66C254.516 59.1551 255.124 57.7171 256.193 56.6576C257.262 55.5981 258.705 55.0025 260.21 55H453.31C454.812 55.0052 456.252 55.6022 457.317 56.6617C458.382 57.7212 458.987 59.1578 459 60.66V332.09C459 333.601 458.401 335.05 457.335 336.121C456.268 337.191 454.821 337.795 453.31 337.8ZM260.21 55.2C258.763 55.2026 257.375 55.7787 256.352 56.8021C255.329 57.8255 254.753 59.2127 254.75 60.66V332.09C254.753 333.537 255.329 334.924 256.352 335.948C257.375 336.971 258.763 337.547 260.21 337.55H453.31C454.757 337.547 456.145 336.971 457.168 335.948C458.191 334.924 458.767 333.537 458.77 332.09V60.66C458.767 59.2127 458.191 57.8255 457.168 56.8021C456.145 55.7787 454.757 55.2026 453.31 55.2H260.21Z" fill="#EBEBEB"/>
<path d="M83.9201 275.14H65.5801V380.2H83.9201V275.14Z" fill="#E6E6E6"/>
<path d="M296.46 275.14H76.8701V380.2H296.46V275.14Z" fill="#F0F0F0"/>
<path d="M81.7998 380.2H88.4098H286.98V382.4H88.4098H81.7998H75.0698V380.2H81.7998Z" fill="#E0E0E0"/>
<path opacity="0.5" d="M290.2 281.71H83.1401V324.1H290.2V281.71Z" fill="#FAFAFA"/>
<path opacity="0.5" d="M290.2 330.96H83.1401V373.35H290.2V330.96Z" fill="#FAFAFA"/>
<path d="M258.81 302.91C258.81 303.832 259.083 304.733 259.595 305.499C260.107 306.265 260.835 306.863 261.687 307.215C262.538 307.568 263.475 307.66 264.379 307.48C265.283 307.301 266.113 306.857 266.765 306.205C267.417 305.553 267.861 304.723 268.041 303.819C268.22 302.915 268.128 301.978 267.775 301.127C267.423 300.275 266.825 299.547 266.059 299.035C265.293 298.523 264.392 298.25 263.47 298.25C262.858 298.25 262.252 298.371 261.687 298.605C261.121 298.839 260.608 299.182 260.175 299.615C259.742 300.048 259.399 300.561 259.165 301.127C258.931 301.692 258.81 302.298 258.81 302.91Z" fill="#E0E0E0"/>
<path d="M105.21 302.91C105.21 303.832 105.483 304.733 105.995 305.499C106.507 306.265 107.235 306.863 108.087 307.215C108.938 307.568 109.875 307.66 110.779 307.48C111.683 307.301 112.513 306.857 113.165 306.205C113.817 305.553 114.261 304.723 114.44 303.819C114.62 302.915 114.528 301.978 114.175 301.127C113.823 300.275 113.225 299.547 112.459 299.035C111.693 298.523 110.792 298.25 109.87 298.25C108.634 298.25 107.449 298.741 106.575 299.615C105.701 300.489 105.21 301.674 105.21 302.91Z" fill="#E0E0E0"/>
<path d="M258.81 352.15C258.81 353.072 259.083 353.973 259.595 354.739C260.107 355.505 260.835 356.103 261.687 356.455C262.538 356.808 263.475 356.9 264.379 356.72C265.283 356.541 266.113 356.097 266.765 355.445C267.417 354.793 267.861 353.963 268.041 353.059C268.22 352.155 268.128 351.218 267.775 350.367C267.423 349.515 266.825 348.787 266.059 348.275C265.293 347.763 264.392 347.49 263.47 347.49C262.858 347.49 262.252 347.611 261.687 347.845C261.121 348.079 260.608 348.422 260.175 348.855C259.742 349.288 259.399 349.801 259.165 350.367C258.931 350.932 258.81 351.538 258.81 352.15Z" fill="#E0E0E0"/>
<path d="M105.21 352.15C105.21 353.072 105.483 353.973 105.995 354.739C106.507 355.505 107.235 356.103 108.087 356.455C108.938 356.808 109.875 356.9 110.779 356.72C111.683 356.541 112.513 356.097 113.165 355.445C113.817 354.793 114.261 353.963 114.44 353.059C114.62 352.155 114.528 351.218 114.175 350.367C113.823 349.515 113.225 348.787 112.459 348.275C111.693 347.763 110.792 347.49 109.87 347.49C109.258 347.489 108.651 347.608 108.085 347.842C107.519 348.076 107.005 348.419 106.572 348.852C106.139 349.285 105.796 349.799 105.562 350.365C105.328 350.931 105.209 351.538 105.21 352.15Z" fill="#E0E0E0"/>
<path d="M249.63 76H65.5801V221.15H249.63V76Z" fill="#EBEBEB"/>
<path d="M253.86 76H67.5601V221.15H253.86V76Z" fill="#F5F5F5"/>
<path d="M237.18 221.16H65.5801V229.03H237.18V221.16Z" fill="#EBEBEB"/>
<path d="M260.08 221.16H86.3599V229.03H260.08V221.16Z" fill="#F0F0F0"/>
<path d="M247.93 215.23V81.9301L73.4802 81.9301V215.23H247.93Z" fill="#FAFAFA"/>
<path d="M86.27 215.23L136.87 81.9301H160.75L110.16 215.23H86.27Z" fill="white"/>
<path d="M76.2301 182.22C76.1187 182.22 76.0118 182.176 75.9331 182.097C75.8543 182.018 75.8101 181.911 75.8101 181.8V85.8C75.8101 85.6886 75.8543 85.5818 75.9331 85.503C76.0118 85.4243 76.1187 85.38 76.2301 85.38C76.3415 85.38 76.4483 85.4243 76.527 85.503C76.6058 85.5818 76.6501 85.6886 76.6501 85.8V181.8C76.6501 181.911 76.6058 182.018 76.527 182.097C76.4483 182.176 76.3415 182.22 76.2301 182.22Z" fill="#F0F0F0"/>
<path d="M115.28 215.23L165.88 81.9301H175.19L124.6 215.23H115.28Z" fill="white"/>
<path d="M164.86 215.23L215.46 81.9301H224.77L174.17 215.23H164.86Z" fill="white"/>
<path d="M247.94 215.23V81.9301H247.19V215.23H247.94Z" fill="#EBEBEB"/>
<g opacity="0.7">
<path d="M255.26 84.93H71.2199L70.6699 84.23H254.72L255.26 84.93Z" fill="#EBEBEB"/>
<path d="M255.26 85.69H71.2199L70.6699 84.99H254.72L255.26 85.69Z" fill="#EBEBEB"/>
<path d="M255.26 86.44H71.2199L70.6699 85.74H254.72L255.26 86.44Z" fill="#EBEBEB"/>
<path d="M255.26 87.19H71.2199L70.6699 86.49H254.72L255.26 87.19Z" fill="#EBEBEB"/>
<path d="M255.26 87.95H71.2199L70.6699 87.25H254.72L255.26 87.95Z" fill="#EBEBEB"/>
<path d="M255.26 88.7H71.2199L70.6699 88H254.72L255.26 88.7Z" fill="#EBEBEB"/>
<path d="M255.26 89.46H71.2199L70.6699 88.75H254.72L255.26 89.46Z" fill="#EBEBEB"/>
<path d="M255.26 90.21H71.2199L70.6699 89.51H254.72L255.26 90.21Z" fill="#EBEBEB"/>
<path d="M255.26 90.96H71.2199L70.6699 90.26H254.72L255.26 90.96Z" fill="#EBEBEB"/>
<path d="M255.26 91.72H71.2199L70.6699 91.02H254.72L255.26 91.72Z" fill="#EBEBEB"/>
<path d="M255.26 92.47H71.2199L70.6699 91.77H254.72L255.26 92.47Z" fill="#EBEBEB"/>
<path d="M255.26 93.22H71.2199L70.6699 92.52H254.72L255.26 93.22Z" fill="#EBEBEB"/>
<path d="M255.26 93.98H71.2199L70.6699 93.28H254.72L255.26 93.98Z" fill="#EBEBEB"/>
<path d="M255.26 94.73H71.2199L70.6699 94.03H254.72L255.26 94.73Z" fill="#EBEBEB"/>
<path d="M255.26 95.48H71.2199L70.6699 94.78H254.72L255.26 95.48Z" fill="#EBEBEB"/>
<path d="M255.26 96.24H71.2199L70.6699 95.54H254.72L255.26 96.24Z" fill="#EBEBEB"/>
<path d="M255.26 96.99H71.2199L70.6699 96.29H254.72L255.26 96.99Z" fill="#EBEBEB"/>
<path d="M255.26 97.75H71.2199L70.6699 97.04H254.72L255.26 97.75Z" fill="#EBEBEB"/>
<path d="M255.26 98.4999H71.2199L70.6699 97.7999H254.72L255.26 98.4999Z" fill="#EBEBEB"/>
<path d="M255.26 99.2499H71.2199L70.6699 98.5499H254.72L255.26 99.2499Z" fill="#EBEBEB"/>
<path d="M255.26 100.01H71.2199L70.6699 99.3099H254.72L255.26 100.01Z" fill="#EBEBEB"/>
<path d="M255.26 100.76H71.2199L70.6699 100.06H254.72L255.26 100.76Z" fill="#EBEBEB"/>
<path d="M255.26 101.51H71.2199L70.6699 100.81H254.72L255.26 101.51Z" fill="#EBEBEB"/>
<path d="M255.26 102.27H71.2199L70.6699 101.57H254.72L255.26 102.27Z" fill="#EBEBEB"/>
</g>
<path d="M356.89 169.09H320.59V382.4H356.89V169.09Z" fill="#E0E0E0"/>
<path d="M419.64 382.4H333.2L317.67 161H404.11L419.64 382.4Z" fill="#E6E6E6"/>
<path d="M428.36 382.4H335.55L320.02 161H412.83L428.36 382.4Z" fill="#F5F5F5"/>
<path d="M351.13 365.64L337.95 177.75H397.25L410.43 365.64H351.13Z" fill="white"/>
<path d="M362.02 136.17C377.76 136.17 390.52 123.41 390.52 107.67C390.52 91.9299 377.76 79.17 362.02 79.17C346.28 79.17 333.52 91.9299 333.52 107.67C333.52 123.41 346.28 136.17 362.02 136.17Z" fill="#E0E0E0"/>
<path d="M363.13 136.17C378.87 136.17 391.63 123.41 391.63 107.67C391.63 91.9299 378.87 79.17 363.13 79.17C347.39 79.17 334.63 91.9299 334.63 107.67C334.63 123.41 347.39 136.17 363.13 136.17Z" fill="#EBEBEB"/>
<path d="M380.417 124.954C389.962 115.41 389.962 99.9352 380.417 90.3908C370.873 80.8464 355.398 80.8464 345.854 90.3908C336.31 99.9352 336.31 115.41 345.854 124.954C355.398 134.499 370.873 134.499 380.417 124.954Z" fill="#FAFAFA"/>
<path d="M362.97 108.24L351.98 95.82L352.73 95.15L363.29 107.1L376.76 103.08L377.05 104.03L362.97 108.24Z" fill="#EBEBEB"/>
<path d="M250 427.56C357.082 427.56 443.89 422.492 443.89 416.24C443.89 409.988 357.082 404.92 250 404.92C142.917 404.92 56.1099 409.988 56.1099 416.24C56.1099 422.492 142.917 427.56 250 427.56Z" fill="#F5F5F5"/>
<path d="M250.56 358.39L256.48 365.95L277.2 336.98L265.81 330.97L250.56 358.39Z" fill="#7F3E3B"/>
<path d="M257.86 363.42L252.47 354.54C252.381 354.384 252.239 354.266 252.07 354.207C251.901 354.148 251.716 354.153 251.55 354.22L244 357.36C243.814 357.448 243.648 357.574 243.514 357.73C243.38 357.886 243.28 358.069 243.221 358.266C243.163 358.463 243.147 358.671 243.174 358.875C243.201 359.079 243.272 359.275 243.38 359.45C245.32 362.52 246.38 363.9 248.78 367.81C250.24 370.21 252.12 373.87 254.14 377.19C256.16 380.51 259.51 378.74 258.96 377.19C256.52 370.19 257.74 368.19 258.21 365.02C258.284 364.462 258.16 363.896 257.86 363.42Z" fill="#263238"/>
<path d="M273.18 207.21C273.18 207.21 298.23 273.44 295.37 297.66C293.37 314.83 276.92 337.83 276.92 337.83L263.65 332.35C263.65 332.35 270.33 311.85 275.54 299.66C277.87 265.66 236.25 227.76 245.75 207.21H273.18Z" fill="#263238"/>
<path d="M261.5 332.92L277.45 339.82L280.95 336.02L263.38 327.35L261.5 332.92Z" fill="#FFA600"/>
<path d="M259.6 368.23C259.779 368.254 259.961 368.238 260.134 368.185C260.307 368.131 260.466 368.041 260.6 367.92C260.705 367.843 260.788 367.74 260.839 367.62C260.89 367.5 260.908 367.369 260.89 367.24C260.74 366.08 257.75 364.59 257.41 364.42C257.375 364.401 257.335 364.391 257.295 364.391C257.255 364.391 257.215 364.401 257.18 364.42C257.148 364.448 257.125 364.484 257.113 364.525C257.1 364.566 257.099 364.609 257.11 364.65C257.5 365.82 258.3 367.83 259.42 368.17L259.6 368.23ZM257.74 365.05C258.92 365.68 260.42 366.67 260.5 367.29C260.507 367.347 260.497 367.404 260.472 367.455C260.447 367.507 260.408 367.55 260.36 367.58C260.261 367.679 260.138 367.75 260.002 367.786C259.867 367.821 259.724 367.819 259.59 367.78C259 367.6 258.31 366.59 257.74 365.05Z" fill="#FFA600"/>
<path d="M258.73 365.28C259.641 365.545 260.619 365.459 261.47 365.04C261.597 364.922 261.679 364.764 261.703 364.593C261.726 364.422 261.69 364.248 261.6 364.1C261.534 363.946 261.436 363.808 261.311 363.696C261.187 363.584 261.04 363.5 260.88 363.45C259.61 363.05 257.34 364.37 257.25 364.45C257.216 364.468 257.188 364.496 257.168 364.529C257.149 364.563 257.139 364.601 257.14 364.64C257.142 364.678 257.153 364.715 257.172 364.748C257.191 364.781 257.218 364.809 257.25 364.83C257.721 365.046 258.219 365.197 258.73 365.28ZM260.61 363.83H260.75C260.852 363.858 260.946 363.909 261.025 363.978C261.105 364.047 261.168 364.133 261.21 364.23C261.33 364.49 261.21 364.6 261.21 364.67C260.74 365.1 258.93 364.96 257.88 364.56C258.71 364.081 259.652 363.829 260.61 363.83Z" fill="#FFA600"/>
<path d="M277.84 156.61C279.53 158.73 281.42 161.01 283.31 163.13C285.2 165.25 287.13 167.41 289.14 169.45C293.062 173.515 297.306 177.258 301.83 180.64L302.67 181.26L303.03 181.52C303.03 181.52 303.03 181.52 303.08 181.52C303.216 181.621 303.38 181.677 303.55 181.68C304.452 181.708 305.349 181.541 306.18 181.19C308.599 180.179 310.883 178.873 312.98 177.3C315.293 175.643 317.516 173.864 319.64 171.97C321.81 170.09 323.97 168.07 326.02 166.09L326.08 166.03C326.499 165.646 327.044 165.428 327.613 165.417C328.181 165.407 328.734 165.605 329.166 165.974C329.599 166.342 329.882 166.857 329.962 167.42C330.042 167.983 329.913 168.555 329.6 169.03C326.057 174.056 321.984 178.686 317.45 182.84C315.01 185.089 312.267 186.984 309.3 188.47C307.433 189.397 305.384 189.899 303.3 189.94C301.978 189.94 300.67 189.664 299.46 189.13C299.145 188.986 298.838 188.826 298.54 188.65L298.22 188.45L297.97 188.29L296.97 187.65C294.339 185.966 291.815 184.123 289.41 182.13C286.99 180.18 284.74 178.13 282.53 175.96C280.32 173.79 278.21 171.62 276.18 169.33C274.15 167.04 272.18 164.76 270.29 162.18C269.578 161.193 269.278 159.967 269.453 158.763C269.628 157.558 270.264 156.469 271.228 155.725C272.191 154.981 273.406 154.641 274.616 154.776C275.825 154.911 276.935 155.512 277.71 156.45L277.84 156.61Z" fill="#7F3E3B"/>
<path d="M325.61 166.63L331.1 159.26L333.29 168.37C333.29 168.37 328.94 172.27 325.29 170.94L325.61 166.63Z" fill="#7F3E3B"/>
<path d="M335.64 157.62L338.14 164.49L333.29 168.37L331.1 159.26L335.64 157.62Z" fill="#7F3E3B"/>
<path d="M237.59 405.53L246.76 405.3L248.42 372.99L235.69 373.94L237.59 405.53Z" fill="#7F3E3B"/>
<path d="M247.06 403L236.75 401C236.67 400.978 236.586 400.973 236.505 400.987C236.423 401 236.345 401.031 236.276 401.078C236.208 401.124 236.15 401.185 236.108 401.257C236.065 401.328 236.039 401.407 236.03 401.49L235.03 408.87C235.018 409.316 235.162 409.752 235.438 410.103C235.714 410.454 236.104 410.697 236.54 410.79C239.509 411.124 242.401 411.949 245.1 413.23C247.71 414.36 252.45 416.23 256.37 416.23C260.29 416.23 259.62 412.43 257.91 412.12C250.23 410.73 251.04 406.37 248.57 403.87C248.164 403.437 247.638 403.134 247.06 403Z" fill="#263238"/>
<path d="M279 156.07C279.49 161.84 279.14 175.4 274.53 207.21H237.29C237.62 193.15 237.51 184.08 231.29 158.05C231.08 157.205 231.048 156.326 231.198 155.469C231.348 154.612 231.675 153.795 232.159 153.072C232.643 152.349 233.273 151.735 234.009 151.269C234.744 150.804 235.569 150.498 236.43 150.37C239.09 149.99 242.27 149.62 245.49 149.47C251.123 149.07 256.777 149.07 262.41 149.47C266.77 149.87 271.48 150.63 274.56 151.18C275.734 151.395 276.805 151.99 277.607 152.874C278.409 153.758 278.899 154.881 279 156.07Z" fill="#263238"/>
<path d="M263.7 171.61C263.62 171.61 263.54 171.59 263.47 171.55C254.273 166.829 246.909 159.18 242.54 149.81C242.494 149.685 242.499 149.547 242.553 149.426C242.607 149.305 242.707 149.209 242.83 149.16C242.892 149.136 242.958 149.124 243.024 149.126C243.09 149.127 243.155 149.142 243.216 149.169C243.276 149.196 243.331 149.235 243.376 149.283C243.422 149.331 243.457 149.388 243.48 149.45C247.675 158.446 254.699 165.822 263.48 170.45C270.7 156.9 265 150 265 150C264.914 149.899 264.871 149.768 264.882 149.636C264.892 149.504 264.954 149.381 265.055 149.295C265.156 149.209 265.287 149.166 265.419 149.176C265.551 149.187 265.674 149.249 265.76 149.35C266.02 149.65 272.11 156.93 264.19 171.35C264.141 171.435 264.069 171.505 263.983 171.551C263.896 171.597 263.798 171.617 263.7 171.61Z" fill="white"/>
<path d="M238.31 107.49C237.98 102.6 244.41 95.62 251.57 96.75C258.95 97.9 272.14 104.53 278.09 97.5C278.09 97.5 278.14 108.74 271.14 111.41C274.09 113.41 282.14 112.91 283.98 110.16C283.86 118.38 275.6 123.34 267.34 122.64C259.08 121.94 254 141 241.67 134C229.34 127 227 108.05 238.31 107.49Z" fill="#263238"/>
<path d="M265.55 121.36L260.21 130C267.81 131.73 276.32 128.82 277.73 122.11C275.58 124.12 268 123.45 265.55 121.36Z" fill="#263238"/>
<path d="M245 131.49L251.36 130.49C250.49 135.34 246.71 139.58 242.45 138.75C244.1 138 245.58 133.41 245 131.49Z" fill="#263238"/>
<path d="M246.47 135.66L250.47 134.03C250.65 137.36 248.81 140.74 245.88 140.85C246.91 140.09 247.18 136.83 246.47 135.66Z" fill="#263238"/>
<path d="M246.82 130.41C247.98 135.86 249.22 145.83 245.48 149.47C250.325 154.518 255.942 158.764 262.12 162.05C267.26 153.49 262.4 149.47 262.4 149.47C256.31 148.02 256.4 143.47 257.4 139.28L246.82 130.41Z" fill="#7F3E3B"/>
<path opacity="0.2" d="M251.12 134L257.36 139.25C257.111 140.233 256.954 141.238 256.89 142.25C254.57 141.92 251.33 139.37 251.04 136.94C250.888 135.963 250.915 134.967 251.12 134Z" fill="black"/>
<path d="M240.21 121.75C243.03 130.43 244.04 134.16 249.67 137.62C258.14 142.81 268.19 137.62 268.03 128.35C267.88 119.98 263.3 107.18 253.75 105.75C251.666 105.406 249.529 105.609 247.547 106.338C245.565 107.067 243.806 108.298 242.442 109.91C241.078 111.522 240.155 113.46 239.764 115.535C239.372 117.611 239.526 119.752 240.21 121.75Z" fill="#7F3E3B"/>
<path d="M241.92 115.83C249.4 115.89 254.16 106.91 262.97 110.55C260.43 105.05 254.86 100.88 248.92 103.38C242.98 105.88 231.56 115.73 241.92 115.83Z" fill="#263238"/>
<path d="M243.87 127.7C247.87 129.86 245.48 113.83 240.87 110.55C234 118.55 238.54 124.86 243.87 127.7Z" fill="#263238"/>
<path opacity="0.2" d="M263 234.41C257.58 226.53 255.89 231.7 255.92 241.34C256.52 243.48 257.15 245.72 257.79 248.04C263.08 257.7 268.72 267.96 272.21 278.26C272.26 263.38 270.51 245.36 263 234.41Z" fill="black"/>
<path d="M264.72 207.21C264.72 207.21 260.84 278.6 257.87 302.8C254.34 331.54 249.29 372.05 249.29 372.05L234.4 374.38C234.4 374.38 230.47 323.05 234.12 307.69C241.89 274.91 227.78 227.76 237.29 207.21H264.72Z" fill="#263238"/>
<path d="M232.44 376.74L249.61 375.23L250.81 368.9L231.38 369.6L232.44 376.74Z" fill="#FFA600"/>
<path d="M261.1 120.77C262.161 122.269 263.422 123.615 264.85 124.77C264.55 125.122 264.176 125.404 263.754 125.594C263.332 125.784 262.873 125.878 262.41 125.87L261.1 120.77Z" fill="#630F0F"/>
<path d="M258.82 129.48C259.235 129.458 259.647 129.394 260.05 129.29C260.078 129.284 260.104 129.273 260.128 129.256C260.151 129.24 260.171 129.219 260.186 129.194C260.201 129.17 260.211 129.143 260.215 129.115C260.219 129.086 260.217 129.058 260.21 129.03C260.194 128.974 260.157 128.926 260.106 128.897C260.056 128.867 259.997 128.857 259.94 128.87C259.043 129.1 258.105 129.12 257.2 128.927C256.294 128.735 255.445 128.335 254.72 127.76C254.701 127.734 254.676 127.713 254.647 127.697C254.618 127.682 254.587 127.673 254.554 127.672C254.522 127.67 254.489 127.676 254.459 127.688C254.429 127.701 254.403 127.72 254.381 127.744C254.359 127.768 254.343 127.797 254.333 127.828C254.324 127.859 254.321 127.891 254.326 127.924C254.331 127.956 254.343 127.986 254.36 128.013C254.378 128.04 254.402 128.063 254.43 128.08C255.66 129.091 257.231 129.592 258.82 129.48Z" fill="#263238"/>
<path d="M239.16 128.41C239.969 129.988 241.361 131.189 243.04 131.76C245.27 132.5 246.47 130.55 245.91 128.41C245.41 126.48 243.65 123.77 241.37 123.97C239.09 124.17 238.19 126.47 239.16 128.41Z" fill="#7F3E3B"/>
<path d="M249.92 118.27C249.979 118.261 250.036 118.24 250.086 118.207C250.136 118.174 250.178 118.131 250.21 118.08C250.489 117.615 250.875 117.224 251.336 116.938C251.797 116.653 252.319 116.482 252.86 116.44C252.975 116.437 253.084 116.39 253.164 116.308C253.245 116.225 253.29 116.115 253.29 116C253.285 115.884 253.235 115.775 253.151 115.695C253.067 115.614 252.956 115.57 252.84 115.57C252.159 115.608 251.497 115.81 250.91 116.158C250.324 116.506 249.83 116.991 249.47 117.57C249.427 117.642 249.405 117.725 249.407 117.809C249.41 117.893 249.436 117.974 249.484 118.044C249.531 118.113 249.597 118.168 249.674 118.201C249.752 118.234 249.837 118.244 249.92 118.23V118.27Z" fill="#263238"/>
<path d="M257.44 120.74C257.396 120.731 257.35 120.73 257.305 120.739C257.26 120.747 257.218 120.765 257.18 120.79C256.847 121.04 256.46 121.208 256.049 121.279C255.639 121.351 255.218 121.323 254.82 121.2C254.78 121.183 254.737 121.174 254.694 121.174C254.65 121.174 254.607 121.184 254.568 121.201C254.528 121.219 254.493 121.245 254.464 121.278C254.435 121.31 254.413 121.349 254.4 121.39C254.384 121.431 254.376 121.474 254.377 121.518C254.378 121.562 254.387 121.605 254.405 121.645C254.423 121.685 254.448 121.721 254.48 121.751C254.512 121.781 254.549 121.805 254.59 121.82C255.092 121.989 255.627 122.033 256.149 121.95C256.672 121.866 257.166 121.657 257.59 121.34C257.66 121.286 257.708 121.208 257.723 121.121C257.737 121.034 257.719 120.944 257.67 120.87C257.611 120.801 257.53 120.755 257.44 120.74Z" fill="#263238"/>
<path d="M265 119C264.909 118.985 264.815 119.006 264.74 119.06C264.409 119.31 264.023 119.477 263.614 119.546C263.205 119.616 262.785 119.586 262.39 119.46C262.308 119.43 262.217 119.433 262.137 119.469C262.057 119.504 261.994 119.569 261.96 119.65C261.944 119.691 261.936 119.734 261.937 119.778C261.938 119.822 261.948 119.865 261.965 119.905C261.983 119.945 262.008 119.981 262.04 120.011C262.072 120.041 262.109 120.064 262.15 120.08C262.651 120.253 263.187 120.3 263.71 120.216C264.234 120.132 264.728 119.921 265.15 119.6C265.22 119.548 265.267 119.471 265.28 119.384C265.293 119.298 265.272 119.21 265.22 119.14C265.166 119.069 265.088 119.019 265 119Z" fill="#263238"/>
<path d="M265 114.44C265.055 114.44 265.109 114.428 265.159 114.406C265.209 114.383 265.253 114.351 265.29 114.31C265.332 114.27 265.365 114.222 265.388 114.168C265.41 114.115 265.422 114.058 265.422 114C265.422 113.942 265.41 113.885 265.388 113.831C265.365 113.778 265.332 113.73 265.29 113.69C264.788 113.21 264.178 112.856 263.512 112.658C262.846 112.459 262.143 112.423 261.46 112.55C261.35 112.578 261.256 112.649 261.198 112.746C261.14 112.844 261.123 112.96 261.15 113.07C261.18 113.183 261.254 113.28 261.355 113.34C261.456 113.399 261.576 113.417 261.69 113.39C262.229 113.301 262.781 113.34 263.302 113.503C263.823 113.666 264.298 113.95 264.69 114.33C264.775 114.406 264.886 114.446 265 114.44Z" fill="#263238"/>
<path d="M237.56 162.8C235.56 165.03 233.61 167.01 231.56 169.03C229.51 171.05 227.35 172.93 225.15 174.79C220.677 178.699 215.732 182.031 210.43 184.71C209.71 185.03 209 185.35 208.24 185.64C207.87 185.79 207.5 185.93 207.1 186.06L206.52 186.25L206.22 186.35L205.72 186.49C204.543 186.762 203.326 186.813 202.13 186.64C201.213 186.513 200.309 186.302 199.43 186.01C196.511 184.985 193.727 183.608 191.14 181.91C186.312 178.794 181.78 175.243 177.6 171.3C177.171 170.908 176.904 170.371 176.852 169.792C176.799 169.214 176.963 168.637 177.314 168.174C177.664 167.711 178.175 167.395 178.746 167.289C179.317 167.183 179.907 167.294 180.4 167.6H180.46C185.12 170.41 189.89 173.23 194.67 175.51C196.882 176.631 199.205 177.519 201.6 178.16C202.055 178.257 202.516 178.321 202.98 178.35C203.36 178.35 203.61 178.35 203.53 178.29C203.45 178.23 203.48 178.29 203.53 178.29L203.73 178.21L204.12 178.05C204.39 177.95 204.65 177.83 204.92 177.7C205.45 177.47 205.99 177.18 206.53 176.91C211.019 174.293 215.219 171.209 219.06 167.71C221.06 165.95 223.01 164.08 224.96 162.22C226.91 160.36 228.81 158.37 230.59 156.5L230.65 156.44C231.498 155.554 232.66 155.036 233.886 154.997C235.111 154.957 236.304 155.399 237.208 156.228C238.111 157.058 238.654 158.208 238.72 159.432C238.786 160.657 238.37 161.859 237.56 162.78V162.8Z" fill="#7F3E3B"/>
<path d="M252.07 405C252.188 404.865 252.271 404.704 252.313 404.529C252.354 404.355 252.353 404.174 252.31 404C252.289 403.858 252.239 403.722 252.161 403.601C252.083 403.48 251.981 403.377 251.86 403.3C250.78 402.61 248.04 403.89 247.73 404.04C247.694 404.057 247.665 404.087 247.648 404.123C247.632 404.16 247.629 404.201 247.64 404.24C247.649 404.285 247.669 404.327 247.699 404.362C247.729 404.397 247.767 404.424 247.81 404.44C249 404.95 251.13 405.72 251.98 405.09L252.07 405ZM248.42 404.24C249.53 403.77 251.12 403.29 251.69 403.66C251.744 403.693 251.789 403.738 251.822 403.792C251.855 403.846 251.875 403.907 251.88 403.97C251.92 404.099 251.922 404.237 251.884 404.366C251.847 404.496 251.772 404.612 251.67 404.7C251.22 405 250 404.86 248.42 404.24Z" fill="#FFA600"/>
<path d="M249.09 403.63C249.431 403.356 249.707 403.011 249.901 402.619C250.094 402.227 250.2 401.797 250.21 401.36C250.168 401.177 250.075 401.01 249.942 400.877C249.81 400.745 249.643 400.652 249.46 400.61C249.31 400.556 249.149 400.538 248.99 400.559C248.832 400.58 248.681 400.639 248.55 400.73C247.55 401.42 247.63 404.08 247.64 404.19C247.64 404.231 247.65 404.272 247.669 404.308C247.689 404.345 247.716 404.376 247.75 404.4C247.784 404.418 247.821 404.428 247.86 404.428C247.898 404.428 247.936 404.418 247.97 404.4C248.388 404.215 248.768 403.954 249.09 403.63ZM248.75 401.19L248.85 401.11C248.932 401.052 249.026 401.015 249.125 401.001C249.224 400.987 249.325 400.997 249.42 401.03C249.7 401.12 249.76 401.26 249.79 401.36C249.93 402.02 248.93 403.36 248.07 403.85C248.032 402.916 248.268 401.991 248.75 401.19Z" fill="#FFA600"/>
<path d="M236.69 205L235.8 208.34C235.67 208.6 235.98 208.86 236.41 208.86H274.77C275.11 208.86 275.39 208.69 275.4 208.48L275.68 205.15C275.68 204.92 275.4 204.72 275.04 204.72H237.29C237.174 204.71 237.058 204.73 236.952 204.779C236.847 204.828 236.756 204.905 236.69 205Z" fill="#FFA600"/>
<path d="M241.84 209.24H240.84C240.63 209.24 240.48 209.14 240.49 209.01L240.89 204.68C240.89 204.55 241.07 204.44 241.27 204.44H242.27C242.48 204.44 242.63 204.55 242.62 204.68L242.22 209.01C242.21 209.14 242 209.24 241.84 209.24Z" fill="#263238"/>
<path d="M271.94 209.24H270.94C270.74 209.24 270.58 209.14 270.59 209.01L270.99 204.68C270.99 204.55 271.18 204.44 271.38 204.44H272.38C272.58 204.44 272.74 204.55 272.72 204.68L272.33 209.01C272.32 209.14 272.14 209.24 271.94 209.24Z" fill="#263238"/>
<path d="M256.89 209.24H255.89C255.69 209.24 255.53 209.14 255.54 209.01L255.94 204.68C255.94 204.55 256.12 204.44 256.33 204.44H257.33C257.53 204.44 257.68 204.55 257.67 204.68L257.28 209.01C257.26 209.14 257.09 209.24 256.89 209.24Z" fill="#263238"/>
<path d="M181.32 168.07L176.4 159.38L173.19 168.09C173.19 168.09 177.07 172.6 180.78 171.81L181.32 168.07Z" fill="#7F3E3B"/>
<path d="M169.25 156.34L166.96 163.79L174.26 169.16L176.4 159.38L169.25 156.34Z" fill="#7F3E3B"/>
<path d="M334.85 146.45L327.85 143.56L327.59 140.93C326.937 140.375 326.329 139.77 325.77 139.12L323.15 138.86L320.26 131.86L321.94 129.86C321.87 129.001 321.87 128.139 321.94 127.28L320.26 125.28L323.15 118.28L325.77 118.03C326.331 117.379 326.939 116.771 327.59 116.21L327.85 113.59L334.85 110.7L336.85 112.38C337.709 112.31 338.572 112.31 339.43 112.38L341.43 110.7L348.43 113.59L348.68 116.21C349.331 116.771 349.939 117.379 350.5 118.03L353.12 118.28L356.01 125.28L354.33 127.28C354.4 128.139 354.4 129.001 354.33 129.86L356.01 131.86L353.12 138.86L350.5 139.12C349.945 139.776 349.336 140.384 348.68 140.94L348.43 143.56L341.43 146.45L339.43 144.77C338.575 144.84 337.715 144.84 336.86 144.77L334.85 146.45ZM339.93 143.22L341.75 144.72L347.06 142.52L347.28 140.18L347.53 139.98C348.275 139.379 348.961 138.709 349.58 137.98L349.77 137.73L352.12 137.51L354.32 132.2L352.82 130.38V130.07C352.92 129.106 352.92 128.134 352.82 127.17V126.86L354.32 125.04L352.12 119.73L349.78 119.51L349.58 119.26C348.961 118.531 348.275 117.861 347.53 117.26L347.28 117.06L347.06 114.72L341.75 112.52L339.93 114.02H339.62C338.656 113.92 337.684 113.92 336.72 114.02H336.41L334.59 112.52L329.28 114.72L329.06 117.06L328.82 117.26C328.07 117.858 327.38 118.528 326.76 119.26L326.56 119.51L324.22 119.73L322 125L323.5 126.82V127.13C323.4 128.094 323.4 129.066 323.5 130.03V130.34L322 132.16L324.2 137.47L326.54 137.69L326.74 137.93C327.352 138.681 328.039 139.368 328.79 139.98L329.04 140.18L329.26 142.53L334.57 144.73L336.39 143.23H336.7C337.664 143.33 338.636 143.33 339.6 143.23L339.93 143.22Z" fill="#FFA600"/>
<path d="M341.28 136.08C339.794 136.696 338.16 136.857 336.582 136.543C335.005 136.229 333.556 135.455 332.419 134.318C331.282 133.181 330.508 131.732 330.194 130.155C329.881 128.578 330.042 126.943 330.657 125.457C331.273 123.972 332.315 122.702 333.652 121.809C334.989 120.916 336.561 120.439 338.17 120.439C339.778 120.439 341.349 120.917 342.686 121.81C344.023 122.704 345.065 123.974 345.68 125.46C346.09 126.446 346.301 127.503 346.301 128.571C346.302 129.639 346.092 130.696 345.683 131.683C345.274 132.669 344.675 133.565 343.919 134.32C343.164 135.074 342.267 135.673 341.28 136.08Z" fill="#FFA600"/>
<path d="M255.64 58.79C255.441 58.79 255.25 58.711 255.11 58.5704C254.969 58.4297 254.89 58.2389 254.89 58.04C254.898 53.364 256.759 48.8818 260.066 45.5754C263.372 42.269 267.854 40.408 272.53 40.4C272.729 40.4 272.92 40.479 273.06 40.6197C273.201 40.7603 273.28 40.9511 273.28 41.15C273.275 45.8268 271.415 50.3105 268.108 53.6175C264.801 56.9245 260.317 58.7847 255.64 58.79ZM271.76 41.92C267.752 42.1163 263.961 43.7966 261.124 46.6338C258.287 49.4711 256.606 53.2624 256.41 57.27C260.419 57.0759 264.211 55.3964 267.049 52.5587C269.887 49.721 271.566 45.9284 271.76 41.92Z" fill="#FFA600"/>
<path d="M260.59 46.86C260.492 46.8613 260.395 46.8432 260.304 46.8066C260.213 46.77 260.13 46.7157 260.061 46.6468C259.991 46.578 259.935 46.496 259.898 46.4055C259.86 46.3151 259.84 46.218 259.84 46.12C259.854 42.095 258.355 38.2118 255.64 35.24C252.932 38.2107 251.436 42.0898 251.45 46.11C251.45 46.3089 251.371 46.4997 251.231 46.6404C251.09 46.781 250.899 46.86 250.7 46.86C250.501 46.86 250.311 46.781 250.17 46.6404C250.029 46.4997 249.95 46.3089 249.95 46.11C249.942 43.7919 250.394 41.4951 251.28 39.3529C252.165 37.2106 253.467 35.2654 255.11 33.63C255.18 33.559 255.263 33.5025 255.355 33.464C255.447 33.4255 255.546 33.4056 255.645 33.4056C255.745 33.4056 255.844 33.4255 255.935 33.464C256.027 33.5025 256.11 33.559 256.18 33.63C257.822 35.2664 259.123 37.2118 260.009 39.3538C260.894 41.4959 261.347 43.7921 261.34 46.11C261.338 46.3081 261.258 46.4974 261.118 46.6375C260.978 46.7776 260.788 46.8574 260.59 46.86Z" fill="#FFA600"/>
<path d="M255.64 58.79C250.962 58.7874 246.477 56.928 243.17 53.6205C239.862 50.3129 238.003 45.8276 238 41.15C238 40.9511 238.079 40.7603 238.22 40.6197C238.36 40.479 238.551 40.4 238.75 40.4C243.42 40.4053 247.898 42.26 251.203 45.5583C254.509 48.8567 256.374 53.3302 256.39 58C256.397 58.1022 256.383 58.2046 256.348 58.301C256.313 58.3973 256.259 58.4854 256.188 58.5596C256.118 58.6339 256.033 58.6927 255.938 58.7323C255.844 58.772 255.742 58.7916 255.64 58.79ZM239.52 41.92C239.717 45.9293 241.398 49.722 244.238 52.5595C247.077 55.3969 250.871 57.0761 254.88 57.27C254.688 53.2592 253.008 49.464 250.167 46.6256C247.327 43.7872 243.531 42.1095 239.52 41.92Z" fill="#FFA600"/>
<path d="M176.78 141.31H169.61C168.76 141.312 167.937 141.011 167.288 140.461C166.64 139.911 166.208 139.149 166.07 138.31L165.92 137.47C165.449 134.767 164.338 132.216 162.68 130.03C160.955 127.701 160.071 124.856 160.17 121.96C160.306 118.649 161.682 115.511 164.026 113.169C166.37 110.827 169.509 109.453 172.82 109.32C175.252 109.234 177.658 109.832 179.767 111.047C181.875 112.261 183.6 114.042 184.746 116.188C185.892 118.335 186.413 120.759 186.249 123.187C186.086 125.614 185.244 127.947 183.82 129.92C182.144 132.15 181.008 134.737 180.5 137.48L180.36 138.31C180.221 139.156 179.784 139.924 179.127 140.474C178.47 141.025 177.637 141.321 176.78 141.31ZM173.19 110.82H172.86C169.932 110.938 167.155 112.154 165.082 114.225C163.009 116.296 161.791 119.072 161.67 122C161.582 124.562 162.365 127.079 163.89 129.14C165.687 131.515 166.89 134.286 167.4 137.22L167.55 138.06C167.629 138.549 167.879 138.994 168.257 139.315C168.635 139.636 169.115 139.811 169.61 139.81H176.78C177.275 139.809 177.754 139.633 178.131 139.313C178.508 138.992 178.76 138.548 178.84 138.06L178.98 137.23C179.53 134.262 180.754 131.459 182.56 129.04C183.795 127.319 184.531 125.29 184.687 123.177C184.843 121.065 184.413 118.95 183.444 117.066C182.475 115.182 181.005 113.602 179.196 112.5C177.387 111.398 175.309 110.817 173.19 110.82Z" fill="#FFA600"/>
<path d="M178.57 144.48C178.57 144.193 178.457 143.917 178.255 143.713C178.052 143.509 177.778 143.393 177.49 143.39H168.9C168.749 143.375 168.596 143.393 168.452 143.441C168.308 143.489 168.176 143.566 168.063 143.668C167.951 143.77 167.861 143.895 167.799 144.034C167.738 144.173 167.706 144.323 167.706 144.475C167.706 144.627 167.738 144.777 167.799 144.916C167.861 145.055 167.951 145.18 168.063 145.282C168.176 145.384 168.308 145.461 168.452 145.509C168.596 145.557 168.749 145.575 168.9 145.56H169.12C168.955 145.737 168.859 145.968 168.85 146.21V146.43C168.85 146.695 168.956 146.95 169.143 147.137C169.331 147.325 169.585 147.43 169.85 147.43H176.58C176.846 147.43 177.1 147.325 177.287 147.137C177.475 146.95 177.58 146.695 177.58 146.43V146.21C177.575 145.969 177.482 145.738 177.32 145.56H177.54C177.817 145.545 178.078 145.425 178.269 145.224C178.461 145.023 178.568 144.757 178.57 144.48Z" fill="#FFA600"/>
<path d="M175.13 140.93C175.031 140.925 174.938 140.881 174.871 140.808C174.803 140.735 174.767 140.639 174.77 140.54C174.946 136.435 175.461 132.351 176.31 128.33H176.12C175.615 128.484 175.078 128.499 174.566 128.372C174.053 128.245 173.585 127.982 173.21 127.61C172.857 127.973 172.412 128.234 171.922 128.362C171.432 128.491 170.916 128.483 170.43 128.34C171.275 132.344 171.784 136.411 171.95 140.5C171.953 140.549 171.945 140.599 171.929 140.646C171.912 140.692 171.886 140.735 171.852 140.771C171.819 140.808 171.778 140.837 171.733 140.857C171.688 140.878 171.64 140.889 171.59 140.89C171.54 140.896 171.489 140.891 171.441 140.875C171.393 140.86 171.349 140.834 171.312 140.8C171.275 140.765 171.246 140.724 171.227 140.677C171.207 140.631 171.198 140.58 171.2 140.53C171.021 136.366 170.492 132.225 169.62 128.15C167.29 127.44 164.62 125.43 164.54 123.86C164.54 123.43 164.71 122.66 166.05 122.34C166.354 122.264 166.672 122.261 166.978 122.33C167.283 122.4 167.569 122.54 167.81 122.74C168.81 123.52 169.63 125.34 170.22 127.54L170.51 127.6C171.37 127.75 172.46 127.72 172.86 126.73C172.895 126.668 172.945 126.615 173.007 126.579C173.068 126.543 173.139 126.524 173.21 126.524C173.282 126.524 173.352 126.543 173.413 126.579C173.475 126.615 173.525 126.668 173.56 126.73C173.96 127.73 175.1 127.73 175.99 127.59C176.169 127.56 176.346 127.52 176.52 127.47C177.11 125.31 177.89 123.47 178.92 122.74C179.16 122.542 179.444 122.402 179.748 122.333C180.051 122.263 180.367 122.266 180.67 122.34C181.99 122.66 182.17 123.4 182.16 123.82C182.16 125.34 179.48 127.3 177.16 128.07C176.284 132.172 175.749 136.34 175.56 140.53C175.565 140.587 175.558 140.644 175.538 140.697C175.517 140.75 175.485 140.797 175.444 140.836C175.402 140.875 175.352 140.903 175.298 140.92C175.243 140.936 175.186 140.94 175.13 140.93ZM166.52 123.07C166.417 123.06 166.313 123.06 166.21 123.07C165.21 123.3 165.27 123.7 165.27 123.84C165.27 124.84 167.27 126.52 169.37 127.29C169.105 125.791 168.41 124.402 167.37 123.29C167.12 123.121 166.82 123.043 166.52 123.07ZM180.17 123.07C179.869 123.076 179.58 123.186 179.35 123.38C178.327 124.449 177.633 125.788 177.35 127.24C179.44 126.43 181.35 124.78 181.35 123.84C181.35 123.5 181.05 123.26 180.44 123.11C180.351 123.09 180.261 123.076 180.17 123.07Z" fill="#FFA600"/>
<path d="M333.4 101.86C333.215 101.86 333.035 101.802 332.884 101.694C332.734 101.587 332.62 101.435 332.56 101.26C328.519 89.822 321.972 79.4325 313.397 70.8521C304.821 62.2718 294.436 55.7178 283 51.6701C282.777 51.5905 282.595 51.4257 282.494 51.2119C282.393 50.9981 282.381 50.7529 282.46 50.5301C282.54 50.3073 282.705 50.1252 282.918 50.024C283.132 49.9227 283.377 49.9105 283.6 49.9901C295.294 54.1182 305.915 60.8117 314.685 69.5795C323.454 78.3474 330.15 88.9673 334.28 100.66C334.321 100.77 334.34 100.888 334.335 101.005C334.33 101.123 334.301 101.238 334.251 101.344C334.201 101.45 334.129 101.545 334.042 101.624C333.954 101.702 333.851 101.762 333.74 101.8C333.633 101.845 333.517 101.865 333.4 101.86Z" fill="#FFA600"/>
<path d="M177.89 101.88C177.787 101.879 177.685 101.859 177.59 101.82C177.479 101.782 177.376 101.722 177.288 101.644C177.2 101.566 177.128 101.471 177.077 101.365C177.026 101.259 176.996 101.144 176.99 101.026C176.984 100.909 177.001 100.791 177.04 100.68C181.169 88.9836 187.865 78.3604 196.637 69.5905C205.408 60.8206 216.033 54.1266 227.73 50C227.953 49.9204 228.198 49.9326 228.412 50.0339C228.626 50.1351 228.791 50.3172 228.87 50.54C228.95 50.7627 228.938 51.008 228.836 51.2218C228.735 51.4356 228.553 51.6004 228.33 51.68C216.884 55.7199 206.488 62.2718 197.905 70.8547C189.322 79.4377 182.77 89.8338 178.73 101.28C178.67 101.455 178.557 101.607 178.406 101.714C178.255 101.822 178.075 101.88 177.89 101.88Z" fill="#FFA600"/>
</svg>
